# xmcd
#
# Track frame offsets: 
#        150
#        9239
#        18221
#        33022
#        54772
#        63716
#        71926
#        79196
#        88438
#        102338
#        114152
#        124640
#        149669
#        164575
#        178777
#        195254
#        210193
#        226851
#        252866
#        266976
#        285512
#
# Disc length: 4021 seconds
#
# Revision: 0
# Processed by: cddbd v1.5PL3 Copyright (c) Steve Scherf et al.
# Submitted via: ExactAudioCopy v0.90b3
#
DISCID=1f0fb315
DTITLE=Mother Maybelle Carter - Mother Maybelle Carter
DYEAR=1973
DGENRE=Country
TTITLE0=Dialogue - 1st Record 1927
TTITLE1=Good Old Mountain Dew
TTITLE2=Still
TTITLE3=Arkansas Traveller - With Dialogue
TTITLE4=Waterloo
TTITLE5=Black Mountain Rag
TTITLE6=Dialogue - Jimmy Rogers and Train
TTITLE7=Wabash Cannonball
TTITLE8=Rocky Top
TTITLE9=Release Me
TTITLE10=Hey Liberty
TTITLE11=Chinese Breakdown - With Dialogue
TTITLE12=The Bells of St. Mary's - With Dialogue
TTITLE13=The World Needs a Melody
TTITLE14=Never on Sunday
TTITLE15=Tennessee Waltz - With Dialogue
TTITLE16=Red Wing - With Dialogue
TTITLE17=Wildwood Flower - With Dialogue
TTITLE18=Running Bear
TTITLE19=Drunkard's Hell
TTITLE20=Sweet Allie Lee
EXTD=
EXTT0=
EXTT1=
EXTT2=
EXTT3=
EXTT4=
EXTT5=
EXTT6=
EXTT7=
EXTT8=
EXTT9=
EXTT10=
EXTT11=
EXTT12=
EXTT13=
EXTT14=
EXTT15=
EXTT16=
EXTT17=
EXTT18=
EXTT19=
EXTT20=
PLAYORDER=
